<mxfile host="app.diagrams.net" agent="Mozilla/5.0 (Macintosh; Intel Mac OS X 10_15_7) AppleWebKit/537.36 (KHTML, like Gecko) Chrome/139.0.0.0 Safari/537.36" version="28.2.8">
  <diagram name="LinkedIn Logical Model - Crows Foot Notation" id="KwijHBb69qsZ3Srkd1rv">
    <mxGraphModel grid="1" page="1" gridSize="10" guides="1" tooltips="1" connect="1" arrows="1" fold="1" pageScale="1" pageWidth="827" pageHeight="1169" math="0" shadow="0">
      <root>
        <mxCell id="0" />
        <mxCell id="1" parent="0" />
        <mxCell id="S6Wq7KjfMYqqDL_vEYJa-113" style="rounded=0;orthogonalLoop=1;jettySize=auto;html=1;exitX=0.5;exitY=1;exitDx=0;exitDy=0;entryX=0;entryY=0;entryDx=0;entryDy=0;endArrow=none;endFill=0;" edge="1" parent="1" source="S6Wq7KjfMYqqDL_vEYJa-115" target="S6Wq7KjfMYqqDL_vEYJa-217">
          <mxGeometry relative="1" as="geometry" />
        </mxCell>
        <mxCell id="S6Wq7KjfMYqqDL_vEYJa-114" value="M" style="edgeLabel;html=1;align=center;verticalAlign=middle;resizable=0;points=[];" connectable="0" vertex="1" parent="S6Wq7KjfMYqqDL_vEYJa-113">
          <mxGeometry x="0.015" y="2" relative="1" as="geometry">
            <mxPoint y="-1" as="offset" />
          </mxGeometry>
        </mxCell>
        <mxCell id="S6Wq7KjfMYqqDL_vEYJa-115" value="User" style="rounded=0;whiteSpace=wrap;html=1;fillColor=#dae8fc;strokeColor=#6c8ebf;fontSize=14;fontStyle=1" vertex="1" parent="1">
          <mxGeometry x="1880" y="670" width="120" height="50" as="geometry" />
        </mxCell>
        <mxCell id="S6Wq7KjfMYqqDL_vEYJa-116" value="UerId" style="ellipse;whiteSpace=wrap;html=1;fillColor=#e1d5e7;strokeColor=#9673a6;fontSize=11;fontStyle=4" vertex="1" parent="1">
          <mxGeometry x="1790" y="600" width="100" height="40" as="geometry" />
        </mxCell>
        <mxCell id="S6Wq7KjfMYqqDL_vEYJa-117" value="" style="endArrow=none;html=1;rounded=0;fontSize=12" edge="1" parent="1" source="S6Wq7KjfMYqqDL_vEYJa-116" target="S6Wq7KjfMYqqDL_vEYJa-115">
          <mxGeometry relative="1" as="geometry" />
        </mxCell>
        <mxCell id="S6Wq7KjfMYqqDL_vEYJa-118" value="Name" style="ellipse;whiteSpace=wrap;html=1;fillColor=#e1d5e7;strokeColor=#9673a6;fontSize=11" vertex="1" parent="1">
          <mxGeometry x="1690" y="660" width="100" height="40" as="geometry" />
        </mxCell>
        <mxCell id="S6Wq7KjfMYqqDL_vEYJa-119" value="" style="endArrow=none;html=1;rounded=0;fontSize=12" edge="1" parent="1" source="S6Wq7KjfMYqqDL_vEYJa-118" target="S6Wq7KjfMYqqDL_vEYJa-115">
          <mxGeometry relative="1" as="geometry" />
        </mxCell>
        <mxCell id="S6Wq7KjfMYqqDL_vEYJa-120" value="Email" style="ellipse;whiteSpace=wrap;html=1;fillColor=#e1d5e7;strokeColor=#9673a6;fontSize=11" vertex="1" parent="1">
          <mxGeometry x="1690" y="720" width="100" height="40" as="geometry" />
        </mxCell>
        <mxCell id="S6Wq7KjfMYqqDL_vEYJa-121" value="" style="endArrow=none;html=1;rounded=0;fontSize=12" edge="1" parent="1" source="S6Wq7KjfMYqqDL_vEYJa-120" target="S6Wq7KjfMYqqDL_vEYJa-115">
          <mxGeometry relative="1" as="geometry" />
        </mxCell>
        <mxCell id="S6Wq7KjfMYqqDL_vEYJa-122" value="Headline" style="ellipse;whiteSpace=wrap;html=1;fillColor=#e1d5e7;strokeColor=#9673a6;fontSize=11" vertex="1" parent="1">
          <mxGeometry x="2040" y="600" width="100" height="40" as="geometry" />
        </mxCell>
        <mxCell id="S6Wq7KjfMYqqDL_vEYJa-123" value="" style="endArrow=none;html=1;rounded=0;fontSize=12" edge="1" parent="1" source="S6Wq7KjfMYqqDL_vEYJa-122" target="S6Wq7KjfMYqqDL_vEYJa-115">
          <mxGeometry relative="1" as="geometry" />
        </mxCell>
        <mxCell id="S6Wq7KjfMYqqDL_vEYJa-124" value="Location" style="ellipse;whiteSpace=wrap;html=1;fillColor=#e1d5e7;strokeColor=#9673a6;fontSize=11" vertex="1" parent="1">
          <mxGeometry x="2040" y="660" width="100" height="40" as="geometry" />
        </mxCell>
        <mxCell id="S6Wq7KjfMYqqDL_vEYJa-125" value="" style="endArrow=none;html=1;rounded=0;fontSize=12" edge="1" parent="1" source="S6Wq7KjfMYqqDL_vEYJa-124" target="S6Wq7KjfMYqqDL_vEYJa-115">
          <mxGeometry relative="1" as="geometry" />
        </mxCell>
        <mxCell id="S6Wq7KjfMYqqDL_vEYJa-126" value="Summary" style="ellipse;whiteSpace=wrap;html=1;fillColor=#e1d5e7;strokeColor=#9673a6;fontSize=11" vertex="1" parent="1">
          <mxGeometry x="2040" y="720" width="100" height="40" as="geometry" />
        </mxCell>
        <mxCell id="S6Wq7KjfMYqqDL_vEYJa-127" value="" style="endArrow=none;html=1;rounded=0;fontSize=12" edge="1" parent="1" source="S6Wq7KjfMYqqDL_vEYJa-126" target="S6Wq7KjfMYqqDL_vEYJa-115">
          <mxGeometry relative="1" as="geometry" />
        </mxCell>
        <mxCell id="S6Wq7KjfMYqqDL_vEYJa-128" style="rounded=0;orthogonalLoop=1;jettySize=auto;html=1;exitX=0.5;exitY=1;exitDx=0;exitDy=0;endArrow=none;endFill=0;entryX=0.5;entryY=0;entryDx=0;entryDy=0;" edge="1" parent="1" source="S6Wq7KjfMYqqDL_vEYJa-130" target="S6Wq7KjfMYqqDL_vEYJa-229">
          <mxGeometry relative="1" as="geometry">
            <mxPoint x="1600" y="1160" as="targetPoint" />
            <mxPoint x="1675" y="1030" as="sourcePoint" />
          </mxGeometry>
        </mxCell>
        <mxCell id="S6Wq7KjfMYqqDL_vEYJa-129" value="N" style="edgeLabel;html=1;align=center;verticalAlign=middle;resizable=0;points=[];" connectable="0" vertex="1" parent="S6Wq7KjfMYqqDL_vEYJa-128">
          <mxGeometry x="-0.3487" y="-2" relative="1" as="geometry">
            <mxPoint x="1" as="offset" />
          </mxGeometry>
        </mxCell>
        <mxCell id="S6Wq7KjfMYqqDL_vEYJa-130" value="Post" style="rounded=0;whiteSpace=wrap;html=1;fillColor=#dae8fc;strokeColor=#6c8ebf;fontSize=14;fontStyle=1" vertex="1" parent="1">
          <mxGeometry x="1620" y="970" width="120" height="60" as="geometry" />
        </mxCell>
        <mxCell id="S6Wq7KjfMYqqDL_vEYJa-131" value="PostID" style="ellipse;whiteSpace=wrap;html=1;fillColor=#e1d5e7;strokeColor=#9673a6;fontSize=11;fontStyle=4" vertex="1" parent="1">
          <mxGeometry x="1490" y="900" width="100" height="40" as="geometry" />
        </mxCell>
        <mxCell id="S6Wq7KjfMYqqDL_vEYJa-132" value="" style="endArrow=none;html=1;rounded=0;fontSize=12" edge="1" parent="1" source="S6Wq7KjfMYqqDL_vEYJa-131" target="S6Wq7KjfMYqqDL_vEYJa-130">
          <mxGeometry relative="1" as="geometry" />
        </mxCell>
        <mxCell id="S6Wq7KjfMYqqDL_vEYJa-133" value="Content" style="ellipse;whiteSpace=wrap;html=1;fillColor=#e1d5e7;strokeColor=#9673a6;fontSize=11" vertex="1" parent="1">
          <mxGeometry x="1490" y="960" width="100" height="40" as="geometry" />
        </mxCell>
        <mxCell id="S6Wq7KjfMYqqDL_vEYJa-134" value="" style="endArrow=none;html=1;rounded=0;fontSize=12" edge="1" parent="1" source="S6Wq7KjfMYqqDL_vEYJa-133" target="S6Wq7KjfMYqqDL_vEYJa-130">
          <mxGeometry relative="1" as="geometry" />
        </mxCell>
        <mxCell id="S6Wq7KjfMYqqDL_vEYJa-135" value="CreatedAt" style="ellipse;whiteSpace=wrap;html=1;fillColor=#e1d5e7;strokeColor=#9673a6;fontSize=11" vertex="1" parent="1">
          <mxGeometry x="1490" y="1020" width="100" height="40" as="geometry" />
        </mxCell>
        <mxCell id="S6Wq7KjfMYqqDL_vEYJa-136" value="" style="endArrow=none;html=1;rounded=0;fontSize=12" edge="1" parent="1" source="S6Wq7KjfMYqqDL_vEYJa-135" target="S6Wq7KjfMYqqDL_vEYJa-130">
          <mxGeometry relative="1" as="geometry" />
        </mxCell>
        <mxCell id="S6Wq7KjfMYqqDL_vEYJa-137" value="UpdatedAt" style="ellipse;whiteSpace=wrap;html=1;fillColor=#e1d5e7;strokeColor=#9673a6;fontSize=11" vertex="1" parent="1">
          <mxGeometry x="1490" y="1080" width="100" height="40" as="geometry" />
        </mxCell>
        <mxCell id="S6Wq7KjfMYqqDL_vEYJa-138" value="" style="endArrow=none;html=1;rounded=0;fontSize=12" edge="1" parent="1" source="S6Wq7KjfMYqqDL_vEYJa-137" target="S6Wq7KjfMYqqDL_vEYJa-130">
          <mxGeometry relative="1" as="geometry" />
        </mxCell>
        <mxCell id="UofD9W6gWGO_OgpKwfUv-123" style="rounded=0;orthogonalLoop=1;jettySize=auto;html=1;exitX=1;exitY=0.25;exitDx=0;exitDy=0;entryX=0;entryY=0.5;entryDx=0;entryDy=0;endArrow=none;endFill=0;" edge="1" parent="1" source="S6Wq7KjfMYqqDL_vEYJa-139" target="UofD9W6gWGO_OgpKwfUv-122">
          <mxGeometry relative="1" as="geometry" />
        </mxCell>
        <mxCell id="S6Wq7KjfMYqqDL_vEYJa-139" value="Company" style="rounded=0;whiteSpace=wrap;html=1;fillColor=#dae8fc;strokeColor=#6c8ebf;fontSize=14;fontStyle=1" vertex="1" parent="1">
          <mxGeometry x="2230" y="960" width="120" height="60" as="geometry" />
        </mxCell>
        <mxCell id="S6Wq7KjfMYqqDL_vEYJa-140" value="CompanyID" style="ellipse;whiteSpace=wrap;html=1;fillColor=#e1d5e7;strokeColor=#9673a6;fontSize=11;fontStyle=4" vertex="1" parent="1">
          <mxGeometry x="2090" y="900" width="100" height="40" as="geometry" />
        </mxCell>
        <mxCell id="S6Wq7KjfMYqqDL_vEYJa-141" value="" style="endArrow=none;html=1;rounded=0;fontSize=12" edge="1" parent="1" source="S6Wq7KjfMYqqDL_vEYJa-140" target="S6Wq7KjfMYqqDL_vEYJa-139">
          <mxGeometry relative="1" as="geometry" />
        </mxCell>
        <mxCell id="S6Wq7KjfMYqqDL_vEYJa-142" value="CompanyName" style="ellipse;whiteSpace=wrap;html=1;fillColor=#e1d5e7;strokeColor=#9673a6;fontSize=11" vertex="1" parent="1">
          <mxGeometry x="2090" y="960" width="100" height="40" as="geometry" />
        </mxCell>
        <mxCell id="S6Wq7KjfMYqqDL_vEYJa-143" value="" style="endArrow=none;html=1;rounded=0;fontSize=12" edge="1" parent="1" source="S6Wq7KjfMYqqDL_vEYJa-142" target="S6Wq7KjfMYqqDL_vEYJa-139">
          <mxGeometry relative="1" as="geometry" />
        </mxCell>
        <mxCell id="S6Wq7KjfMYqqDL_vEYJa-144" value="Website" style="ellipse;whiteSpace=wrap;html=1;fillColor=#e1d5e7;strokeColor=#9673a6;fontSize=11" vertex="1" parent="1">
          <mxGeometry x="2090" y="1020" width="100" height="40" as="geometry" />
        </mxCell>
        <mxCell id="S6Wq7KjfMYqqDL_vEYJa-145" value="" style="endArrow=none;html=1;rounded=0;fontSize=12" edge="1" parent="1" source="S6Wq7KjfMYqqDL_vEYJa-144" target="S6Wq7KjfMYqqDL_vEYJa-139">
          <mxGeometry relative="1" as="geometry" />
        </mxCell>
        <mxCell id="S6Wq7KjfMYqqDL_vEYJa-146" value="Industry" style="ellipse;whiteSpace=wrap;html=1;fillColor=#e1d5e7;strokeColor=#9673a6;fontSize=11" vertex="1" parent="1">
          <mxGeometry x="2410" y="980" width="100" height="40" as="geometry" />
        </mxCell>
        <mxCell id="S6Wq7KjfMYqqDL_vEYJa-147" value="" style="endArrow=none;html=1;rounded=0;fontSize=12" edge="1" parent="1" source="S6Wq7KjfMYqqDL_vEYJa-146" target="S6Wq7KjfMYqqDL_vEYJa-139">
          <mxGeometry relative="1" as="geometry" />
        </mxCell>
        <mxCell id="S6Wq7KjfMYqqDL_vEYJa-148" style="rounded=0;orthogonalLoop=1;jettySize=auto;html=1;exitX=0;exitY=0.25;exitDx=0;exitDy=0;entryX=1;entryY=1;entryDx=0;entryDy=0;endArrow=none;endFill=0;" edge="1" parent="1" source="S6Wq7KjfMYqqDL_vEYJa-150" target="S6Wq7KjfMYqqDL_vEYJa-217">
          <mxGeometry relative="1" as="geometry" />
        </mxCell>
        <mxCell id="S6Wq7KjfMYqqDL_vEYJa-149" value="N" style="edgeLabel;html=1;align=center;verticalAlign=middle;resizable=0;points=[];" connectable="0" vertex="1" parent="S6Wq7KjfMYqqDL_vEYJa-148">
          <mxGeometry x="-0.0032" relative="1" as="geometry">
            <mxPoint x="-1" as="offset" />
          </mxGeometry>
        </mxCell>
        <mxCell id="S6Wq7KjfMYqqDL_vEYJa-150" value="Job Post" style="rounded=0;whiteSpace=wrap;html=1;fillColor=#dae8fc;strokeColor=#6c8ebf;fontSize=14;fontStyle=1" vertex="1" parent="1">
          <mxGeometry x="2390" y="1210" width="120" height="60" as="geometry" />
        </mxCell>
        <mxCell id="S6Wq7KjfMYqqDL_vEYJa-151" value="JobID" style="ellipse;whiteSpace=wrap;html=1;fillColor=#e1d5e7;strokeColor=#9673a6;fontSize=11;fontStyle=4" vertex="1" parent="1">
          <mxGeometry x="2260" y="1150" width="100" height="40" as="geometry" />
        </mxCell>
        <mxCell id="S6Wq7KjfMYqqDL_vEYJa-152" value="" style="endArrow=none;html=1;rounded=0;fontSize=12" edge="1" parent="1" source="S6Wq7KjfMYqqDL_vEYJa-151" target="S6Wq7KjfMYqqDL_vEYJa-150">
          <mxGeometry relative="1" as="geometry" />
        </mxCell>
        <mxCell id="S6Wq7KjfMYqqDL_vEYJa-153" value="Title" style="ellipse;whiteSpace=wrap;html=1;fillColor=#e1d5e7;strokeColor=#9673a6;fontSize=11" vertex="1" parent="1">
          <mxGeometry x="2240" y="1230" width="100" height="40" as="geometry" />
        </mxCell>
        <mxCell id="S6Wq7KjfMYqqDL_vEYJa-154" value="" style="endArrow=none;html=1;rounded=0;fontSize=12" edge="1" parent="1" source="S6Wq7KjfMYqqDL_vEYJa-153" target="S6Wq7KjfMYqqDL_vEYJa-150">
          <mxGeometry relative="1" as="geometry" />
        </mxCell>
        <mxCell id="S6Wq7KjfMYqqDL_vEYJa-155" value="Description" style="ellipse;whiteSpace=wrap;html=1;fillColor=#e1d5e7;strokeColor=#9673a6;fontSize=11" vertex="1" parent="1">
          <mxGeometry x="2260" y="1280" width="100" height="40" as="geometry" />
        </mxCell>
        <mxCell id="S6Wq7KjfMYqqDL_vEYJa-156" value="" style="endArrow=none;html=1;rounded=0;fontSize=12" edge="1" parent="1" source="S6Wq7KjfMYqqDL_vEYJa-155" target="S6Wq7KjfMYqqDL_vEYJa-150">
          <mxGeometry relative="1" as="geometry" />
        </mxCell>
        <mxCell id="S6Wq7KjfMYqqDL_vEYJa-157" value="Location" style="ellipse;whiteSpace=wrap;html=1;fillColor=#e1d5e7;strokeColor=#9673a6;fontSize=11" vertex="1" parent="1">
          <mxGeometry x="2570" y="1180" width="100" height="40" as="geometry" />
        </mxCell>
        <mxCell id="S6Wq7KjfMYqqDL_vEYJa-158" value="" style="endArrow=none;html=1;rounded=0;fontSize=12" edge="1" parent="1" source="S6Wq7KjfMYqqDL_vEYJa-157" target="S6Wq7KjfMYqqDL_vEYJa-150">
          <mxGeometry relative="1" as="geometry" />
        </mxCell>
        <mxCell id="S6Wq7KjfMYqqDL_vEYJa-159" value="Requirements" style="ellipse;whiteSpace=wrap;html=1;fillColor=#e1d5e7;strokeColor=#9673a6;fontSize=11" vertex="1" parent="1">
          <mxGeometry x="2570" y="1250" width="100" height="40" as="geometry" />
        </mxCell>
        <mxCell id="S6Wq7KjfMYqqDL_vEYJa-160" value="" style="endArrow=none;html=1;rounded=0;fontSize=12" edge="1" parent="1" source="S6Wq7KjfMYqqDL_vEYJa-159" target="S6Wq7KjfMYqqDL_vEYJa-150">
          <mxGeometry relative="1" as="geometry" />
        </mxCell>
        <mxCell id="S6Wq7KjfMYqqDL_vEYJa-161" value="Message" style="rounded=0;whiteSpace=wrap;html=1;fillColor=#dae8fc;strokeColor=#6c8ebf;fontSize=14;fontStyle=1" vertex="1" parent="1">
          <mxGeometry x="1940" y="1200" width="120" height="60" as="geometry" />
        </mxCell>
        <mxCell id="S6Wq7KjfMYqqDL_vEYJa-162" value="MessageID" style="ellipse;whiteSpace=wrap;html=1;fillColor=#e1d5e7;strokeColor=#9673a6;fontSize=11;fontStyle=4" vertex="1" parent="1">
          <mxGeometry x="1800" y="1180" width="100" height="40" as="geometry" />
        </mxCell>
        <mxCell id="S6Wq7KjfMYqqDL_vEYJa-163" value="" style="endArrow=none;html=1;rounded=0;fontSize=12" edge="1" parent="1" source="S6Wq7KjfMYqqDL_vEYJa-162" target="S6Wq7KjfMYqqDL_vEYJa-161">
          <mxGeometry relative="1" as="geometry" />
        </mxCell>
        <mxCell id="S6Wq7KjfMYqqDL_vEYJa-164" value="Content" style="ellipse;whiteSpace=wrap;html=1;fillColor=#e1d5e7;strokeColor=#9673a6;fontSize=11" vertex="1" parent="1">
          <mxGeometry x="1730" y="1230" width="100" height="40" as="geometry" />
        </mxCell>
        <mxCell id="S6Wq7KjfMYqqDL_vEYJa-165" value="" style="endArrow=none;html=1;rounded=0;fontSize=12" edge="1" parent="1" source="S6Wq7KjfMYqqDL_vEYJa-164" target="S6Wq7KjfMYqqDL_vEYJa-161">
          <mxGeometry relative="1" as="geometry" />
        </mxCell>
        <mxCell id="S6Wq7KjfMYqqDL_vEYJa-166" value="Timestamp" style="ellipse;whiteSpace=wrap;html=1;fillColor=#e1d5e7;strokeColor=#9673a6;fontSize=11" vertex="1" parent="1">
          <mxGeometry x="1800" y="1290" width="100" height="40" as="geometry" />
        </mxCell>
        <mxCell id="S6Wq7KjfMYqqDL_vEYJa-167" value="" style="endArrow=none;html=1;rounded=0;fontSize=12" edge="1" parent="1" source="S6Wq7KjfMYqqDL_vEYJa-166" target="S6Wq7KjfMYqqDL_vEYJa-161">
          <mxGeometry relative="1" as="geometry" />
        </mxCell>
        <mxCell id="S6Wq7KjfMYqqDL_vEYJa-168" value="Skill" style="rounded=0;whiteSpace=wrap;html=1;fillColor=#dae8fc;strokeColor=#6c8ebf;fontSize=14;fontStyle=1" vertex="1" parent="1">
          <mxGeometry x="1290" y="860" width="120" height="60" as="geometry" />
        </mxCell>
        <mxCell id="S6Wq7KjfMYqqDL_vEYJa-169" value="SkillID" style="ellipse;whiteSpace=wrap;html=1;fillColor=#e1d5e7;strokeColor=#9673a6;fontSize=11;fontStyle=4" vertex="1" parent="1">
          <mxGeometry x="1240" y="790" width="100" height="40" as="geometry" />
        </mxCell>
        <mxCell id="S6Wq7KjfMYqqDL_vEYJa-170" value="" style="endArrow=none;html=1;rounded=0;fontSize=12" edge="1" parent="1" source="S6Wq7KjfMYqqDL_vEYJa-169" target="S6Wq7KjfMYqqDL_vEYJa-168">
          <mxGeometry relative="1" as="geometry" />
        </mxCell>
        <mxCell id="S6Wq7KjfMYqqDL_vEYJa-171" value="SkillName" style="ellipse;whiteSpace=wrap;html=1;fillColor=#e1d5e7;strokeColor=#9673a6;fontSize=11" vertex="1" parent="1">
          <mxGeometry x="1380" y="790" width="100" height="40" as="geometry" />
        </mxCell>
        <mxCell id="S6Wq7KjfMYqqDL_vEYJa-172" value="" style="endArrow=none;html=1;rounded=0;fontSize=12" edge="1" parent="1" source="S6Wq7KjfMYqqDL_vEYJa-171" target="S6Wq7KjfMYqqDL_vEYJa-168">
          <mxGeometry relative="1" as="geometry" />
        </mxCell>
        <mxCell id="S6Wq7KjfMYqqDL_vEYJa-173" value="Education" style="rounded=0;whiteSpace=wrap;html=1;fillColor=#dae8fc;strokeColor=#6c8ebf;fontSize=14;fontStyle=1" vertex="1" parent="1">
          <mxGeometry x="2490" y="660" width="120" height="60" as="geometry" />
        </mxCell>
        <mxCell id="S6Wq7KjfMYqqDL_vEYJa-174" value="EducationID" style="ellipse;whiteSpace=wrap;html=1;fillColor=#e1d5e7;strokeColor=#9673a6;fontSize=11;fontStyle=4" vertex="1" parent="1">
          <mxGeometry x="2390" y="600" width="100" height="40" as="geometry" />
        </mxCell>
        <mxCell id="S6Wq7KjfMYqqDL_vEYJa-175" value="" style="endArrow=none;html=1;rounded=0;fontSize=12" edge="1" parent="1" source="S6Wq7KjfMYqqDL_vEYJa-174" target="S6Wq7KjfMYqqDL_vEYJa-173">
          <mxGeometry relative="1" as="geometry" />
        </mxCell>
        <mxCell id="S6Wq7KjfMYqqDL_vEYJa-176" value="Grade" style="ellipse;whiteSpace=wrap;html=1;fillColor=#e1d5e7;strokeColor=#9673a6;fontSize=11" vertex="1" parent="1">
          <mxGeometry x="2510" y="750" width="100" height="40" as="geometry" />
        </mxCell>
        <mxCell id="S6Wq7KjfMYqqDL_vEYJa-177" value="" style="endArrow=none;html=1;rounded=0;fontSize=12" edge="1" parent="1" source="S6Wq7KjfMYqqDL_vEYJa-176" target="S6Wq7KjfMYqqDL_vEYJa-173">
          <mxGeometry relative="1" as="geometry" />
        </mxCell>
        <mxCell id="S6Wq7KjfMYqqDL_vEYJa-178" value="FieldOfStudy" style="ellipse;whiteSpace=wrap;html=1;fillColor=#e1d5e7;strokeColor=#9673a6;fontSize=11" vertex="1" parent="1">
          <mxGeometry x="2640" y="600" width="100" height="40" as="geometry" />
        </mxCell>
        <mxCell id="S6Wq7KjfMYqqDL_vEYJa-179" value="" style="endArrow=none;html=1;rounded=0;fontSize=12" edge="1" parent="1" source="S6Wq7KjfMYqqDL_vEYJa-178" target="S6Wq7KjfMYqqDL_vEYJa-173">
          <mxGeometry relative="1" as="geometry" />
        </mxCell>
        <mxCell id="S6Wq7KjfMYqqDL_vEYJa-180" value="StartDate" style="ellipse;whiteSpace=wrap;html=1;fillColor=#e1d5e7;strokeColor=#9673a6;fontSize=11" vertex="1" parent="1">
          <mxGeometry x="2640" y="660" width="100" height="40" as="geometry" />
        </mxCell>
        <mxCell id="S6Wq7KjfMYqqDL_vEYJa-181" value="" style="endArrow=none;html=1;rounded=0;fontSize=12" edge="1" parent="1" source="S6Wq7KjfMYqqDL_vEYJa-180" target="S6Wq7KjfMYqqDL_vEYJa-173">
          <mxGeometry relative="1" as="geometry" />
        </mxCell>
        <mxCell id="S6Wq7KjfMYqqDL_vEYJa-182" value="EndDate" style="ellipse;whiteSpace=wrap;html=1;fillColor=#e1d5e7;strokeColor=#9673a6;fontSize=11" vertex="1" parent="1">
          <mxGeometry x="2640" y="720" width="100" height="40" as="geometry" />
        </mxCell>
        <mxCell id="S6Wq7KjfMYqqDL_vEYJa-183" value="" style="endArrow=none;html=1;rounded=0;fontSize=12" edge="1" parent="1" source="S6Wq7KjfMYqqDL_vEYJa-182" target="S6Wq7KjfMYqqDL_vEYJa-173">
          <mxGeometry relative="1" as="geometry" />
        </mxCell>
        <mxCell id="S6Wq7KjfMYqqDL_vEYJa-184" value="CREATES" style="rhombus;whiteSpace=wrap;html=1;fillColor=#fff2cc;strokeColor=#d6b656;fontSize=12;fontStyle=1" vertex="1" parent="1">
          <mxGeometry x="1650" y="800" width="120" height="80" as="geometry" />
        </mxCell>
        <mxCell id="S6Wq7KjfMYqqDL_vEYJa-185" value="1" style="endArrow=none;html=1;rounded=0;fontSize=12" edge="1" parent="1" source="S6Wq7KjfMYqqDL_vEYJa-115" target="S6Wq7KjfMYqqDL_vEYJa-184">
          <mxGeometry relative="1" as="geometry" />
        </mxCell>
        <mxCell id="S6Wq7KjfMYqqDL_vEYJa-186" value="N" style="endArrow=none;html=1;rounded=0;fontSize=12" edge="1" parent="1" source="S6Wq7KjfMYqqDL_vEYJa-184" target="S6Wq7KjfMYqqDL_vEYJa-130">
          <mxGeometry relative="1" as="geometry" />
        </mxCell>
        <mxCell id="S6Wq7KjfMYqqDL_vEYJa-187" value="WORKS FOR" style="rhombus;whiteSpace=wrap;html=1;fillColor=#fff2cc;strokeColor=#d6b656;fontSize=12;fontStyle=1" vertex="1" parent="1">
          <mxGeometry x="2170" y="810" width="120" height="80" as="geometry" />
        </mxCell>
        <mxCell id="S6Wq7KjfMYqqDL_vEYJa-188" value="JobTitle" style="ellipse;whiteSpace=wrap;html=1;fillColor=#e1d5e7;strokeColor=#9673a6;fontSize=11" vertex="1" parent="1">
          <mxGeometry x="2380" y="795" width="85" height="35" as="geometry" />
        </mxCell>
        <mxCell id="S6Wq7KjfMYqqDL_vEYJa-189" value="" style="endArrow=none;html=1;rounded=0;fontSize=12" edge="1" parent="1" source="S6Wq7KjfMYqqDL_vEYJa-188" target="S6Wq7KjfMYqqDL_vEYJa-187">
          <mxGeometry relative="1" as="geometry" />
        </mxCell>
        <mxCell id="S6Wq7KjfMYqqDL_vEYJa-190" value="StartDate" style="ellipse;whiteSpace=wrap;html=1;fillColor=#e1d5e7;strokeColor=#9673a6;fontSize=11" vertex="1" parent="1">
          <mxGeometry x="2360" y="860" width="85" height="35" as="geometry" />
        </mxCell>
        <mxCell id="S6Wq7KjfMYqqDL_vEYJa-191" value="" style="endArrow=none;html=1;rounded=0;fontSize=12" edge="1" parent="1" source="S6Wq7KjfMYqqDL_vEYJa-190" target="S6Wq7KjfMYqqDL_vEYJa-187">
          <mxGeometry relative="1" as="geometry" />
        </mxCell>
        <mxCell id="S6Wq7KjfMYqqDL_vEYJa-192" value="EndDate" style="ellipse;whiteSpace=wrap;html=1;fillColor=#e1d5e7;strokeColor=#9673a6;fontSize=11" vertex="1" parent="1">
          <mxGeometry x="2187.5" y="760" width="85" height="35" as="geometry" />
        </mxCell>
        <mxCell id="S6Wq7KjfMYqqDL_vEYJa-193" value="" style="endArrow=none;html=1;rounded=0;fontSize=12" edge="1" parent="1" source="S6Wq7KjfMYqqDL_vEYJa-192" target="S6Wq7KjfMYqqDL_vEYJa-187">
          <mxGeometry relative="1" as="geometry" />
        </mxCell>
        <mxCell id="S6Wq7KjfMYqqDL_vEYJa-194" value="M" style="endArrow=none;html=1;rounded=0;fontSize=12" edge="1" parent="1" source="S6Wq7KjfMYqqDL_vEYJa-115" target="S6Wq7KjfMYqqDL_vEYJa-187">
          <mxGeometry relative="1" as="geometry" />
        </mxCell>
        <mxCell id="S6Wq7KjfMYqqDL_vEYJa-195" value="N" style="endArrow=none;html=1;rounded=0;fontSize=12" edge="1" parent="1" source="S6Wq7KjfMYqqDL_vEYJa-187" target="S6Wq7KjfMYqqDL_vEYJa-139">
          <mxGeometry relative="1" as="geometry" />
        </mxCell>
        <mxCell id="S6Wq7KjfMYqqDL_vEYJa-196" value="POSTS" style="rhombus;whiteSpace=wrap;html=1;fillColor=#fff2cc;strokeColor=#d6b656;fontSize=12;fontStyle=1" vertex="1" parent="1">
          <mxGeometry x="2370" y="1060" width="120" height="80" as="geometry" />
        </mxCell>
        <mxCell id="S6Wq7KjfMYqqDL_vEYJa-197" value="1" style="endArrow=none;html=1;rounded=0;fontSize=12" edge="1" parent="1" source="S6Wq7KjfMYqqDL_vEYJa-139" target="S6Wq7KjfMYqqDL_vEYJa-196">
          <mxGeometry relative="1" as="geometry" />
        </mxCell>
        <mxCell id="S6Wq7KjfMYqqDL_vEYJa-198" value="N" style="endArrow=none;html=1;rounded=0;fontSize=12" edge="1" parent="1" source="S6Wq7KjfMYqqDL_vEYJa-196" target="S6Wq7KjfMYqqDL_vEYJa-150">
          <mxGeometry relative="1" as="geometry" />
        </mxCell>
        <mxCell id="S6Wq7KjfMYqqDL_vEYJa-199" value="SENDS" style="rhombus;whiteSpace=wrap;html=1;fillColor=#fff2cc;strokeColor=#d6b656;fontSize=12;fontStyle=1" vertex="1" parent="1">
          <mxGeometry x="1860" y="1030" width="120" height="80" as="geometry" />
        </mxCell>
        <mxCell id="S6Wq7KjfMYqqDL_vEYJa-200" value="1" style="endArrow=none;html=1;rounded=0;fontSize=12" edge="1" parent="1" source="S6Wq7KjfMYqqDL_vEYJa-115" target="S6Wq7KjfMYqqDL_vEYJa-199">
          <mxGeometry relative="1" as="geometry" />
        </mxCell>
        <mxCell id="S6Wq7KjfMYqqDL_vEYJa-201" value="N" style="endArrow=none;html=1;rounded=0;fontSize=12" edge="1" parent="1" source="S6Wq7KjfMYqqDL_vEYJa-199" target="S6Wq7KjfMYqqDL_vEYJa-161">
          <mxGeometry relative="1" as="geometry" />
        </mxCell>
        <mxCell id="S6Wq7KjfMYqqDL_vEYJa-202" value="RECEIVES" style="rhombus;whiteSpace=wrap;html=1;fillColor=#fff2cc;strokeColor=#d6b656;fontSize=12;fontStyle=1" vertex="1" parent="1">
          <mxGeometry x="1930" y="970" width="120" height="80" as="geometry" />
        </mxCell>
        <mxCell id="S6Wq7KjfMYqqDL_vEYJa-203" value="1" style="endArrow=none;html=1;rounded=0;fontSize=12" edge="1" parent="1" source="S6Wq7KjfMYqqDL_vEYJa-115" target="S6Wq7KjfMYqqDL_vEYJa-202">
          <mxGeometry relative="1" as="geometry" />
        </mxCell>
        <mxCell id="S6Wq7KjfMYqqDL_vEYJa-204" value="N" style="endArrow=none;html=1;rounded=0;fontSize=12" edge="1" parent="1" source="S6Wq7KjfMYqqDL_vEYJa-202" target="S6Wq7KjfMYqqDL_vEYJa-161">
          <mxGeometry relative="1" as="geometry" />
        </mxCell>
        <mxCell id="S6Wq7KjfMYqqDL_vEYJa-205" value="HAS SKILL" style="rhombus;whiteSpace=wrap;html=1;fillColor=#fff2cc;strokeColor=#d6b656;fontSize=12;fontStyle=1" vertex="1" parent="1">
          <mxGeometry x="1540" y="760" width="120" height="80" as="geometry" />
        </mxCell>
        <mxCell id="S6Wq7KjfMYqqDL_vEYJa-206" value="M" style="endArrow=none;html=1;rounded=0;fontSize=12" edge="1" parent="1" source="S6Wq7KjfMYqqDL_vEYJa-115" target="S6Wq7KjfMYqqDL_vEYJa-205">
          <mxGeometry relative="1" as="geometry" />
        </mxCell>
        <mxCell id="S6Wq7KjfMYqqDL_vEYJa-207" value="N" style="endArrow=none;html=1;rounded=0;fontSize=12" edge="1" parent="1" source="S6Wq7KjfMYqqDL_vEYJa-205" target="S6Wq7KjfMYqqDL_vEYJa-168">
          <mxGeometry relative="1" as="geometry" />
        </mxCell>
        <mxCell id="S6Wq7KjfMYqqDL_vEYJa-208" value="HAS EDUCATION" style="rhombus;whiteSpace=wrap;html=1;fillColor=#fff2cc;strokeColor=#d6b656;fontSize=12;fontStyle=1" vertex="1" parent="1">
          <mxGeometry x="2210" y="630" width="120" height="80" as="geometry" />
        </mxCell>
        <mxCell id="S6Wq7KjfMYqqDL_vEYJa-209" value="M" style="endArrow=none;html=1;rounded=0;fontSize=12" edge="1" parent="1" source="S6Wq7KjfMYqqDL_vEYJa-115" target="S6Wq7KjfMYqqDL_vEYJa-208">
          <mxGeometry relative="1" as="geometry" />
        </mxCell>
        <mxCell id="S6Wq7KjfMYqqDL_vEYJa-210" value="N" style="endArrow=none;html=1;rounded=0;fontSize=12" edge="1" parent="1" source="S6Wq7KjfMYqqDL_vEYJa-208" target="S6Wq7KjfMYqqDL_vEYJa-173">
          <mxGeometry relative="1" as="geometry" />
        </mxCell>
        <mxCell id="S6Wq7KjfMYqqDL_vEYJa-211" value="REACTS TO" style="rhombus;whiteSpace=wrap;html=1;fillColor=#fff2cc;strokeColor=#d6b656;fontSize=12;fontStyle=1" vertex="1" parent="1">
          <mxGeometry x="1740" y="860" width="120" height="80" as="geometry" />
        </mxCell>
        <mxCell id="S6Wq7KjfMYqqDL_vEYJa-212" value="M" style="endArrow=none;html=1;rounded=0;fontSize=12" edge="1" parent="1" source="S6Wq7KjfMYqqDL_vEYJa-115" target="S6Wq7KjfMYqqDL_vEYJa-211">
          <mxGeometry relative="1" as="geometry" />
        </mxCell>
        <mxCell id="S6Wq7KjfMYqqDL_vEYJa-213" value="N" style="endArrow=none;html=1;rounded=0;fontSize=12" edge="1" parent="1" source="S6Wq7KjfMYqqDL_vEYJa-211" target="S6Wq7KjfMYqqDL_vEYJa-130">
          <mxGeometry relative="1" as="geometry" />
        </mxCell>
        <mxCell id="S6Wq7KjfMYqqDL_vEYJa-214" style="edgeStyle=orthogonalEdgeStyle;rounded=0;orthogonalLoop=1;jettySize=auto;html=1;exitX=0.5;exitY=1;exitDx=0;exitDy=0;" edge="1" parent="1" source="S6Wq7KjfMYqqDL_vEYJa-159" target="S6Wq7KjfMYqqDL_vEYJa-159">
          <mxGeometry relative="1" as="geometry" />
        </mxCell>
        <mxCell id="S6Wq7KjfMYqqDL_vEYJa-217" value="APPLIES" style="rhombus;whiteSpace=wrap;html=1;fillColor=#fff2cc;strokeColor=#d6b656;fontSize=12;fontStyle=1" vertex="1" parent="1">
          <mxGeometry x="2080" y="1120" width="120" height="80" as="geometry" />
        </mxCell>
        <mxCell id="S6Wq7KjfMYqqDL_vEYJa-218" style="rounded=0;orthogonalLoop=1;jettySize=auto;html=1;exitX=0.25;exitY=0;exitDx=0;exitDy=0;entryX=0.5;entryY=1;entryDx=0;entryDy=0;endArrow=none;endFill=0;" edge="1" parent="1" source="S6Wq7KjfMYqqDL_vEYJa-223" target="S6Wq7KjfMYqqDL_vEYJa-229">
          <mxGeometry relative="1" as="geometry" />
        </mxCell>
        <mxCell id="S6Wq7KjfMYqqDL_vEYJa-219" value="M" style="edgeLabel;html=1;align=center;verticalAlign=middle;resizable=0;points=[];" connectable="0" vertex="1" parent="S6Wq7KjfMYqqDL_vEYJa-218">
          <mxGeometry x="-0.0644" y="4" relative="1" as="geometry">
            <mxPoint as="offset" />
          </mxGeometry>
        </mxCell>
        <mxCell id="S6Wq7KjfMYqqDL_vEYJa-220" style="rounded=0;orthogonalLoop=1;jettySize=auto;html=1;exitX=0.25;exitY=1;exitDx=0;exitDy=0;endArrow=none;endFill=0;" edge="1" parent="1" source="S6Wq7KjfMYqqDL_vEYJa-223" target="S6Wq7KjfMYqqDL_vEYJa-231">
          <mxGeometry relative="1" as="geometry" />
        </mxCell>
        <mxCell id="S6Wq7KjfMYqqDL_vEYJa-221" style="rounded=0;orthogonalLoop=1;jettySize=auto;html=1;exitX=0.75;exitY=1;exitDx=0;exitDy=0;entryX=0.5;entryY=0;entryDx=0;entryDy=0;endArrow=none;endFill=0;" edge="1" parent="1" source="S6Wq7KjfMYqqDL_vEYJa-223" target="S6Wq7KjfMYqqDL_vEYJa-230">
          <mxGeometry relative="1" as="geometry" />
        </mxCell>
        <mxCell id="S6Wq7KjfMYqqDL_vEYJa-222" style="rounded=0;orthogonalLoop=1;jettySize=auto;html=1;exitX=0;exitY=0.5;exitDx=0;exitDy=0;entryX=1;entryY=0.5;entryDx=0;entryDy=0;endArrow=none;endFill=0;" edge="1" parent="1" source="S6Wq7KjfMYqqDL_vEYJa-223" target="S6Wq7KjfMYqqDL_vEYJa-232">
          <mxGeometry relative="1" as="geometry">
            <mxPoint x="1500" y="1280" as="targetPoint" />
          </mxGeometry>
        </mxCell>
        <mxCell id="S6Wq7KjfMYqqDL_vEYJa-223" value="Comment" style="rounded=0;whiteSpace=wrap;html=1;fillColor=#dae8fc;strokeColor=#6c8ebf;fontSize=14;fontStyle=1" vertex="1" parent="1">
          <mxGeometry x="1580" y="1260" width="120" height="60" as="geometry" />
        </mxCell>
        <mxCell id="S6Wq7KjfMYqqDL_vEYJa-224" style="rounded=0;orthogonalLoop=1;jettySize=auto;html=1;exitX=0;exitY=1;exitDx=0;exitDy=0;entryX=0.5;entryY=0;entryDx=0;entryDy=0;endArrow=none;endFill=0;" edge="1" parent="1" source="S6Wq7KjfMYqqDL_vEYJa-226" target="S6Wq7KjfMYqqDL_vEYJa-223">
          <mxGeometry relative="1" as="geometry" />
        </mxCell>
        <mxCell id="S6Wq7KjfMYqqDL_vEYJa-225" value="N" style="edgeLabel;html=1;align=center;verticalAlign=middle;resizable=0;points=[];" connectable="0" vertex="1" parent="S6Wq7KjfMYqqDL_vEYJa-224">
          <mxGeometry x="0.081" y="-3" relative="1" as="geometry">
            <mxPoint as="offset" />
          </mxGeometry>
        </mxCell>
        <mxCell id="S6Wq7KjfMYqqDL_vEYJa-226" value="ADDS" style="rhombus;whiteSpace=wrap;html=1;fillColor=#fff2cc;strokeColor=#d6b656;fontSize=12;fontStyle=1" vertex="1" parent="1">
          <mxGeometry x="1770" y="990" width="120" height="80" as="geometry" />
        </mxCell>
        <mxCell id="S6Wq7KjfMYqqDL_vEYJa-227" style="rounded=0;orthogonalLoop=1;jettySize=auto;html=1;exitX=0.5;exitY=1;exitDx=0;exitDy=0;entryX=0.708;entryY=0.15;entryDx=0;entryDy=0;entryPerimeter=0;endArrow=none;endFill=0;" edge="1" parent="1" source="S6Wq7KjfMYqqDL_vEYJa-115" target="S6Wq7KjfMYqqDL_vEYJa-226">
          <mxGeometry relative="1" as="geometry" />
        </mxCell>
        <mxCell id="S6Wq7KjfMYqqDL_vEYJa-228" value="M" style="edgeLabel;html=1;align=center;verticalAlign=middle;resizable=0;points=[];" connectable="0" vertex="1" parent="S6Wq7KjfMYqqDL_vEYJa-227">
          <mxGeometry x="0.0209" y="3" relative="1" as="geometry">
            <mxPoint as="offset" />
          </mxGeometry>
        </mxCell>
        <mxCell id="S6Wq7KjfMYqqDL_vEYJa-229" value="HAS" style="rhombus;whiteSpace=wrap;html=1;fillColor=#fff2cc;strokeColor=#d6b656;fontSize=12;fontStyle=1" vertex="1" parent="1">
          <mxGeometry x="1580" y="1090" width="120" height="80" as="geometry" />
        </mxCell>
        <mxCell id="S6Wq7KjfMYqqDL_vEYJa-230" value="Likes" style="ellipse;whiteSpace=wrap;html=1;fillColor=#e1d5e7;strokeColor=#9673a6;fontSize=11" vertex="1" parent="1">
          <mxGeometry x="1660" y="1350" width="100" height="40" as="geometry" />
        </mxCell>
        <mxCell id="S6Wq7KjfMYqqDL_vEYJa-231" value="Content" style="ellipse;whiteSpace=wrap;html=1;fillColor=#e1d5e7;strokeColor=#9673a6;fontSize=11" vertex="1" parent="1">
          <mxGeometry x="1510" y="1350" width="100" height="40" as="geometry" />
        </mxCell>
        <mxCell id="S6Wq7KjfMYqqDL_vEYJa-232" value="&lt;u&gt;CommentId&lt;/u&gt;" style="ellipse;whiteSpace=wrap;html=1;fillColor=#e1d5e7;strokeColor=#9673a6;fontSize=11" vertex="1" parent="1">
          <mxGeometry x="1420" y="1290" width="100" height="40" as="geometry" />
        </mxCell>
        <mxCell id="UofD9W6gWGO_OgpKwfUv-122" value="Size" style="ellipse;whiteSpace=wrap;html=1;fillColor=#e1d5e7;strokeColor=#9673a6;fontSize=11" vertex="1" parent="1">
          <mxGeometry x="2400" y="920" width="100" height="40" as="geometry" />
        </mxCell>
        <mxCell id="UofD9W6gWGO_OgpKwfUv-124" value="InstitutionName" style="ellipse;whiteSpace=wrap;html=1;fillColor=#e1d5e7;strokeColor=#9673a6;fontSize=11" vertex="1" parent="1">
          <mxGeometry x="2530" y="560" width="100" height="40" as="geometry" />
        </mxCell>
        <mxCell id="UofD9W6gWGO_OgpKwfUv-125" style="rounded=0;orthogonalLoop=1;jettySize=auto;html=1;exitX=0.5;exitY=0;exitDx=0;exitDy=0;entryX=0.32;entryY=0.95;entryDx=0;entryDy=0;entryPerimeter=0;endArrow=none;endFill=0;" edge="1" parent="1" source="S6Wq7KjfMYqqDL_vEYJa-173" target="UofD9W6gWGO_OgpKwfUv-124">
          <mxGeometry relative="1" as="geometry" />
        </mxCell>
        <mxCell id="UofD9W6gWGO_OgpKwfUv-128" value="ExpiryDate" style="ellipse;whiteSpace=wrap;html=1;fillColor=#e1d5e7;strokeColor=#9673a6;fontSize=11" vertex="1" parent="1">
          <mxGeometry x="2520" y="1330" width="100" height="40" as="geometry" />
        </mxCell>
        <mxCell id="UofD9W6gWGO_OgpKwfUv-129" value="PostedDate" style="ellipse;whiteSpace=wrap;html=1;fillColor=#e1d5e7;strokeColor=#9673a6;fontSize=11" vertex="1" parent="1">
          <mxGeometry x="2390" y="1340" width="100" height="40" as="geometry" />
        </mxCell>
        <mxCell id="UofD9W6gWGO_OgpKwfUv-130" style="rounded=0;orthogonalLoop=1;jettySize=auto;html=1;exitX=0.5;exitY=0;exitDx=0;exitDy=0;entryX=0.324;entryY=1.035;entryDx=0;entryDy=0;entryPerimeter=0;endArrow=none;endFill=0;" edge="1" parent="1" source="UofD9W6gWGO_OgpKwfUv-129" target="S6Wq7KjfMYqqDL_vEYJa-150">
          <mxGeometry relative="1" as="geometry" />
        </mxCell>
        <mxCell id="UofD9W6gWGO_OgpKwfUv-131" style="rounded=0;orthogonalLoop=1;jettySize=auto;html=1;exitX=0.5;exitY=0;exitDx=0;exitDy=0;entryX=0.792;entryY=0.996;entryDx=0;entryDy=0;entryPerimeter=0;endArrow=none;endFill=0;" edge="1" parent="1" source="UofD9W6gWGO_OgpKwfUv-128" target="S6Wq7KjfMYqqDL_vEYJa-150">
          <mxGeometry relative="1" as="geometry" />
        </mxCell>
      </root>
    </mxGraphModel>
  </diagram>
</mxfile>
